<svg xmlns="http://www.w3.org/2000/svg" width="400" height="400" viewBox="0 0 400 400">
  <defs>
    <linearGradient id="grad" x1="0" y1="0" x2="1" y2="1">
      <stop offset="0" stop-color="#0b1220"/>
      <stop offset="1" stop-color="#0f1724"/>
    </linearGradient>
    <linearGradient id="acc" x1="0" y1="0" x2="1" y2="1">
      <stop offset="0" stop-color="#7dd3fc"/>
      <stop offset="1" stop-color="#06b6d4"/>
    </linearGradient>
    <linearGradient id="frameGrad" x1="0" y1="0" x2="1" y2="1">
      <stop offset="0" stop-color="#a5f3fc"/>
      <stop offset="0.5" stop-color="#60a5fa"/>
      <stop offset="1" stop-color="#0ea5e9"/>
    </linearGradient>
    <filter id="softShadow" x="-20%" y="-20%" width="140%" height="140%">
      <feDropShadow dx="0" dy="10" stdDeviation="12" flood-color="#000" flood-opacity="0.6"/>
    </filter>
    <filter id="frameGlow" x="-30%" y="-30%" width="160%" height="160%">
      <feDropShadow dx="0" dy="0" stdDeviation="5" flood-color="#67e8f9" flood-opacity="0.28"/>
    </filter>
  </defs>

  <rect width="100%" height="100%" rx="40" fill="url(#grad)"/>

  <g filter="url(#softShadow)">
    <path d="M116 300
             Q121 289 126 272
             L170 124
             Q173 118 180 118
             L220 118
             Q227 118 230 124
             L274 272
             Q279 289 284 300
             Q278 304 270 304
             L252 304
             Q246 304 242 298
             L234 252
             Q232 244 224 244
             L176 244
             Q168 244 166 252
             L158 298
             Q154 304 148 304
             L130 304
             Q122 304 116 300
             Z"
          fill="none"
          stroke="#67e8f9" stroke-width="10" stroke-linejoin="round" stroke-linecap="round"
          opacity="0.12" filter="url(#frameGlow)"/>

    <path d="M116 300
             Q121 289 126 272
             L170 124
             Q173 118 180 118
             L220 118
             Q227 118 230 124
             L274 272
             Q279 289 284 300
             Q278 304 270 304
             L252 304
             Q246 304 242 298
             L234 252
             Q232 244 224 244
             L176 244
             Q168 244 166 252
             L158 298
             Q154 304 148 304
             L130 304
             Q122 304 116 300
             Z"
          fill="#0f1724" opacity="0.95"
          stroke="url(#frameGrad)" stroke-width="5" stroke-linejoin="round" stroke-linecap="round"
          paint-order="stroke fill"/>

    <path d="M116 300
             Q121 289 126 272
             L170 124
             Q173 118 180 118
             L220 118
             Q227 118 230 124
             L274 272
             Q279 289 284 300
             Q278 304 270 304
             L252 304
             Q246 304 242 298
             L234 252
             Q232 244 224 244
             L176 244
             Q168 244 166 252
             L158 298
             Q154 304 148 304
             L130 304
             Q122 304 116 300
             Z"
          fill="none"
          stroke="#ffffff" stroke-width="1.2" stroke-linejoin="round" stroke-linecap="round"
          opacity="0.26"/>

    <path d="M150 220 L190 140 L210 140 L250 220 L150 220 Z"
      fill="url(#acc)" opacity="0.95" transform="translate(-2,0)"/>

    <path d="M175 175 L225 175 L200 230 Z"
      fill="#071126" opacity="0.9"
      stroke="#93c5fd" stroke-width="2" stroke-linejoin="round" stroke-linecap="round" paint-order="stroke fill"/>
  </g>

  <text x="50%" y="88%" font-size="28" font-family="Inter, Segoe UI, Roboto, Arial, sans-serif" fill="#dbeafe" text-anchor="middle" letter-spacing="1">Aevum AI</text>
</svg>
